<mxfile host="app.diagrams.net" agent="Mozilla/5.0 (Windows NT 10.0; Win64; x64) AppleWebKit/537.36 (KHTML, like Gecko) Chrome/129.0.0.0 Safari/537.36" version="24.7.16">
  <diagram name="Page-1" id="VRgv8VNWMKeIa5qsEYIT">
    <mxGraphModel dx="1050" dy="557" grid="1" gridSize="10" guides="1" tooltips="1" connect="1" arrows="1" fold="1" page="1" pageScale="1" pageWidth="850" pageHeight="1100" math="0" shadow="0">
      <root>
        <mxCell id="0" />
        <mxCell id="1" parent="0" />
        <mxCell id="2FWOI6o0ey2x9Y8wvemD-12" value="" style="edgeStyle=orthogonalEdgeStyle;rounded=0;orthogonalLoop=1;jettySize=auto;html=1;" edge="1" parent="1" source="2FWOI6o0ey2x9Y8wvemD-1" target="2FWOI6o0ey2x9Y8wvemD-11">
          <mxGeometry relative="1" as="geometry" />
        </mxCell>
        <mxCell id="2FWOI6o0ey2x9Y8wvemD-1" value="Kaggle" style="whiteSpace=wrap;html=1;aspect=fixed;" vertex="1" parent="1">
          <mxGeometry x="10" y="80" width="90" height="90" as="geometry" />
        </mxCell>
        <mxCell id="2FWOI6o0ey2x9Y8wvemD-5" value="" style="edgeStyle=orthogonalEdgeStyle;rounded=0;orthogonalLoop=1;jettySize=auto;html=1;" edge="1" parent="1" source="2FWOI6o0ey2x9Y8wvemD-2" target="2FWOI6o0ey2x9Y8wvemD-4">
          <mxGeometry relative="1" as="geometry" />
        </mxCell>
        <mxCell id="2FWOI6o0ey2x9Y8wvemD-2" value="aws s3" style="whiteSpace=wrap;html=1;aspect=fixed;" vertex="1" parent="1">
          <mxGeometry x="260" y="160" width="90" height="90" as="geometry" />
        </mxCell>
        <mxCell id="2FWOI6o0ey2x9Y8wvemD-7" value="" style="edgeStyle=orthogonalEdgeStyle;rounded=0;orthogonalLoop=1;jettySize=auto;html=1;" edge="1" parent="1" source="2FWOI6o0ey2x9Y8wvemD-4" target="2FWOI6o0ey2x9Y8wvemD-6">
          <mxGeometry relative="1" as="geometry" />
        </mxCell>
        <mxCell id="2FWOI6o0ey2x9Y8wvemD-4" value="snowflake" style="whiteSpace=wrap;html=1;aspect=fixed;" vertex="1" parent="1">
          <mxGeometry x="410" y="110" width="90" height="90" as="geometry" />
        </mxCell>
        <mxCell id="2FWOI6o0ey2x9Y8wvemD-9" value="" style="edgeStyle=orthogonalEdgeStyle;rounded=0;orthogonalLoop=1;jettySize=auto;html=1;" edge="1" parent="1" source="2FWOI6o0ey2x9Y8wvemD-6" target="2FWOI6o0ey2x9Y8wvemD-8">
          <mxGeometry relative="1" as="geometry" />
        </mxCell>
        <mxCell id="2FWOI6o0ey2x9Y8wvemD-6" value="postgresql" style="whiteSpace=wrap;html=1;aspect=fixed;" vertex="1" parent="1">
          <mxGeometry x="550" y="110" width="90" height="90" as="geometry" />
        </mxCell>
        <mxCell id="2FWOI6o0ey2x9Y8wvemD-8" value="power bi&lt;div&gt;report&lt;/div&gt;" style="whiteSpace=wrap;html=1;aspect=fixed;" vertex="1" parent="1">
          <mxGeometry x="700" y="70" width="90" height="90" as="geometry" />
        </mxCell>
        <mxCell id="2FWOI6o0ey2x9Y8wvemD-11" value="python data cleaning" style="whiteSpace=wrap;html=1;aspect=fixed;" vertex="1" parent="1">
          <mxGeometry x="180" y="50" width="90" height="90" as="geometry" />
        </mxCell>
        <mxCell id="2FWOI6o0ey2x9Y8wvemD-13" style="edgeStyle=orthogonalEdgeStyle;rounded=0;orthogonalLoop=1;jettySize=auto;html=1;entryX=0.004;entryY=0.416;entryDx=0;entryDy=0;entryPerimeter=0;" edge="1" parent="1" source="2FWOI6o0ey2x9Y8wvemD-11" target="2FWOI6o0ey2x9Y8wvemD-2">
          <mxGeometry relative="1" as="geometry" />
        </mxCell>
        <mxCell id="2FWOI6o0ey2x9Y8wvemD-16" value="" style="edgeStyle=orthogonalEdgeStyle;rounded=0;orthogonalLoop=1;jettySize=auto;html=1;" edge="1" parent="1" source="2FWOI6o0ey2x9Y8wvemD-17" target="2FWOI6o0ey2x9Y8wvemD-19">
          <mxGeometry relative="1" as="geometry" />
        </mxCell>
        <mxCell id="2FWOI6o0ey2x9Y8wvemD-17" value="aws s3" style="whiteSpace=wrap;html=1;aspect=fixed;" vertex="1" parent="1">
          <mxGeometry x="270" y="400" width="90" height="90" as="geometry" />
        </mxCell>
        <mxCell id="2FWOI6o0ey2x9Y8wvemD-18" value="" style="edgeStyle=orthogonalEdgeStyle;rounded=0;orthogonalLoop=1;jettySize=auto;html=1;" edge="1" parent="1" source="2FWOI6o0ey2x9Y8wvemD-19" target="2FWOI6o0ey2x9Y8wvemD-21">
          <mxGeometry relative="1" as="geometry" />
        </mxCell>
        <mxCell id="2FWOI6o0ey2x9Y8wvemD-19" value="snowflake" style="whiteSpace=wrap;html=1;aspect=fixed;" vertex="1" parent="1">
          <mxGeometry x="420" y="350" width="90" height="90" as="geometry" />
        </mxCell>
        <mxCell id="2FWOI6o0ey2x9Y8wvemD-20" value="" style="edgeStyle=orthogonalEdgeStyle;rounded=0;orthogonalLoop=1;jettySize=auto;html=1;" edge="1" parent="1" source="2FWOI6o0ey2x9Y8wvemD-21" target="2FWOI6o0ey2x9Y8wvemD-22">
          <mxGeometry relative="1" as="geometry" />
        </mxCell>
        <mxCell id="2FWOI6o0ey2x9Y8wvemD-21" value="postgresql/mysql" style="whiteSpace=wrap;html=1;aspect=fixed;" vertex="1" parent="1">
          <mxGeometry x="550" y="350" width="90" height="90" as="geometry" />
        </mxCell>
        <mxCell id="2FWOI6o0ey2x9Y8wvemD-22" value="power bi&lt;div&gt;report&lt;/div&gt;" style="whiteSpace=wrap;html=1;aspect=fixed;" vertex="1" parent="1">
          <mxGeometry x="700" y="310" width="90" height="90" as="geometry" />
        </mxCell>
        <mxCell id="2FWOI6o0ey2x9Y8wvemD-23" value="ETL - Alteryx/" style="whiteSpace=wrap;html=1;aspect=fixed;" vertex="1" parent="1">
          <mxGeometry x="180" y="290" width="90" height="90" as="geometry" />
        </mxCell>
        <mxCell id="2FWOI6o0ey2x9Y8wvemD-24" style="edgeStyle=orthogonalEdgeStyle;rounded=0;orthogonalLoop=1;jettySize=auto;html=1;entryX=0.004;entryY=0.416;entryDx=0;entryDy=0;entryPerimeter=0;" edge="1" parent="1" source="2FWOI6o0ey2x9Y8wvemD-23" target="2FWOI6o0ey2x9Y8wvemD-17">
          <mxGeometry relative="1" as="geometry" />
        </mxCell>
        <mxCell id="2FWOI6o0ey2x9Y8wvemD-25" value="Kaggle" style="whiteSpace=wrap;html=1;aspect=fixed;" vertex="1" parent="1">
          <mxGeometry x="20" y="320" width="80" height="80" as="geometry" />
        </mxCell>
        <mxCell id="2FWOI6o0ey2x9Y8wvemD-26" style="edgeStyle=orthogonalEdgeStyle;rounded=0;orthogonalLoop=1;jettySize=auto;html=1;entryX=-0.031;entryY=0.589;entryDx=0;entryDy=0;entryPerimeter=0;" edge="1" parent="1" source="2FWOI6o0ey2x9Y8wvemD-25" target="2FWOI6o0ey2x9Y8wvemD-23">
          <mxGeometry relative="1" as="geometry" />
        </mxCell>
        <mxCell id="2FWOI6o0ey2x9Y8wvemD-27" value="" style="edgeStyle=orthogonalEdgeStyle;rounded=0;orthogonalLoop=1;jettySize=auto;html=1;" edge="1" parent="1" source="2FWOI6o0ey2x9Y8wvemD-28" target="2FWOI6o0ey2x9Y8wvemD-36">
          <mxGeometry relative="1" as="geometry" />
        </mxCell>
        <mxCell id="2FWOI6o0ey2x9Y8wvemD-28" value="Kaggle" style="whiteSpace=wrap;html=1;aspect=fixed;" vertex="1" parent="1">
          <mxGeometry x="20" y="560" width="90" height="90" as="geometry" />
        </mxCell>
        <mxCell id="2FWOI6o0ey2x9Y8wvemD-29" value="" style="edgeStyle=orthogonalEdgeStyle;rounded=0;orthogonalLoop=1;jettySize=auto;html=1;" edge="1" parent="1" source="2FWOI6o0ey2x9Y8wvemD-30" target="2FWOI6o0ey2x9Y8wvemD-32">
          <mxGeometry relative="1" as="geometry" />
        </mxCell>
        <mxCell id="2FWOI6o0ey2x9Y8wvemD-30" value="aws s3" style="whiteSpace=wrap;html=1;aspect=fixed;" vertex="1" parent="1">
          <mxGeometry x="270" y="640" width="90" height="90" as="geometry" />
        </mxCell>
        <mxCell id="2FWOI6o0ey2x9Y8wvemD-31" value="" style="edgeStyle=orthogonalEdgeStyle;rounded=0;orthogonalLoop=1;jettySize=auto;html=1;" edge="1" parent="1" source="2FWOI6o0ey2x9Y8wvemD-32" target="2FWOI6o0ey2x9Y8wvemD-34">
          <mxGeometry relative="1" as="geometry" />
        </mxCell>
        <mxCell id="2FWOI6o0ey2x9Y8wvemD-32" value="snowflake" style="whiteSpace=wrap;html=1;aspect=fixed;" vertex="1" parent="1">
          <mxGeometry x="420" y="590" width="90" height="90" as="geometry" />
        </mxCell>
        <mxCell id="2FWOI6o0ey2x9Y8wvemD-33" value="" style="edgeStyle=orthogonalEdgeStyle;rounded=0;orthogonalLoop=1;jettySize=auto;html=1;" edge="1" parent="1" source="2FWOI6o0ey2x9Y8wvemD-34" target="2FWOI6o0ey2x9Y8wvemD-35">
          <mxGeometry relative="1" as="geometry" />
        </mxCell>
        <mxCell id="2FWOI6o0ey2x9Y8wvemD-34" value="postgresql" style="whiteSpace=wrap;html=1;aspect=fixed;" vertex="1" parent="1">
          <mxGeometry x="560" y="590" width="90" height="90" as="geometry" />
        </mxCell>
        <mxCell id="2FWOI6o0ey2x9Y8wvemD-35" value="power bi&lt;div&gt;report&lt;/div&gt;" style="whiteSpace=wrap;html=1;aspect=fixed;" vertex="1" parent="1">
          <mxGeometry x="710" y="550" width="90" height="90" as="geometry" />
        </mxCell>
        <mxCell id="2FWOI6o0ey2x9Y8wvemD-36" value="python data cleaning" style="whiteSpace=wrap;html=1;aspect=fixed;" vertex="1" parent="1">
          <mxGeometry x="190" y="530" width="90" height="90" as="geometry" />
        </mxCell>
        <mxCell id="2FWOI6o0ey2x9Y8wvemD-37" style="edgeStyle=orthogonalEdgeStyle;rounded=0;orthogonalLoop=1;jettySize=auto;html=1;entryX=0.004;entryY=0.416;entryDx=0;entryDy=0;entryPerimeter=0;" edge="1" parent="1" source="2FWOI6o0ey2x9Y8wvemD-36" target="2FWOI6o0ey2x9Y8wvemD-30">
          <mxGeometry relative="1" as="geometry" />
        </mxCell>
      </root>
    </mxGraphModel>
  </diagram>
</mxfile>
